# xmcd
#
# Track frame offsets:
#	150
#	15734
#	31137
#	47655
#	61521
#	81206
#	95358
#	108184
#	123161
#	135455
#
# Disc length: 2031 seconds
#
# Revision: 1
# Processed by: cddbd v1.5.2PL0 Copyright (c) Steve Scherf et al.
# Submitted via: audiograbber 1.83.01
#
DISCID=6c07ed0a
DTITLE=Andy Martin - Honky Tonks Are Calling Me Again
DYEAR=2018
DGENRE=Country
TTITLE0=Never Again
TTITLE1=Broke Down
TTITLE2=Such an Easy Conversation
TTITLE3=Honky Tonks are Calling Me Again
TTITLE4=Soothing Memories Cannot Heal an Aching Heart
TTITLE5=Dying Side of Love
TTITLE6=I Can Love Again
TTITLE7=Kentucky On My Mind
TTITLE8=Song About You and Me
TTITLE9=Your Lively Love Lets Me Live Again
EXTD=Limited Edition
EXTT0=
EXTT1=
EXTT2=
EXTT3=
EXTT4=
EXTT5=
EXTT6=
EXTT7=
EXTT8=
EXTT9=
PLAYORDER=
